<?xml version="1.0" standalone="no"?>
<!DOCTYPE svg PUBLIC "-//W3C//DTD SVG 20010904//EN"
 "http://www.w3.org/TR/2001/REC-SVG-20010904/DTD/svg10.dtd">
<svg version="1.0" xmlns="http://www.w3.org/2000/svg"
 width="935.000000pt" height="255.000000pt" viewBox="0 0 935.000000 255.000000"
 preserveAspectRatio="xMidYMid meet">

<g transform="translate(0.000000,255.000000) scale(0.100000,-0.100000)"
fill="#000000" stroke="none">
<path d="M10 1675 l0 -865 3375 0 c3072 0 3375 1 3375 16 0 9 6 14 13 11 6 -2
11 -10 9 -16 -1 -8 330 -11 1258 -11 l1260 0 0 865 0 865 -904 0 c-594 0 -907
-3 -911 -10 -4 -7 -12 -7 -25 0 -24 13 -1470 14 -1470 1 0 -5 7 -17 15 -25 14
-14 14 -18 0 -40 -9 -14 -29 -27 -43 -31 -28 -6 -82 -48 -82 -63 0 -12 -54
-50 -83 -57 -20 -5 -29 -1 -47 25 -35 49 -15 73 44 50 41 -15 76 6 76 46 0 24
-5 34 -20 39 -25 8 -25 16 0 43 l21 22 -2931 0 -2930 0 0 -865z m5380 795 c0
-11 -6 -20 -14 -20 -9 0 -12 7 -9 20 3 11 9 20 14 20 5 0 9 -9 9 -20z m769
-142 c-19 -24 -57 -73 -87 -110 l-53 -68 -64 0 c-36 0 -65 4 -65 10 0 5 14 44
31 87 17 43 35 88 40 101 8 21 14 22 120 22 l111 0 -33 -42z m-845 15 c4 -10
-1 -28 -14 -45 -11 -15 -20 -31 -20 -36 0 -5 -13 -23 -29 -41 l-29 -33 -17 33
c-16 31 -16 33 0 45 10 7 21 15 24 16 3 2 19 20 34 41 31 41 42 45 51 20z
m1226 -68 c0 -20 -40 -75 -55 -75 -15 0 -2 57 17 77 28 30 38 29 38 -2z m-870
-165 c0 -16 -4 -30 -8 -30 -4 0 -13 14 -19 30 -10 27 -9 30 8 30 14 0 19 -7
19 -30z m-1753 -42 c76 -28 155 -103 193 -182 43 -92 62 -200 62 -356 0 -217
-38 -345 -132 -444 -66 -70 -129 -98 -235 -104 -224 -12 -369 145 -404 437
-39 321 82 599 289 662 53 16 168 10 227 -13z m2225 -10 c106 -49 181 -157
215 -308 26 -115 23 -383 -6 -469 -11 -35 -18 -67 -15 -72 2 -4 21 -11 42 -15
34 -7 35 -8 12 -14 -15 -3 -31 -19 -40 -37 -14 -29 -17 -30 -34 -17 -18 12
-24 9 -68 -37 -27 -28 -73 -62 -105 -77 -50 -23 -71 -27 -153 -27 -76 0 -104
5 -142 22 -105 48 -168 125 -214 259 -23 68 -28 100 -32 224 -6 185 10 270 73
395 25 50 45 99 45 111 0 27 10 36 26 23 10 -8 21 -5 45 11 62 45 118 60 209
57 67 -2 97 -8 142 -29z m2631 21 c42 -11 101 -59 128 -103 l18 -29 5 34 c3
19 7 45 8 59 3 24 5 25 96 28 l92 3 0 -196 0 -195 -95 0 c-68 0 -97 4 -99 13
-2 6 -9 32 -16 56 -34 125 -189 151 -198 34 -3 -35 1 -44 30 -68 18 -15 79
-49 135 -76 124 -57 209 -132 243 -212 30 -68 26 -208 -8 -277 -51 -106 -147
-165 -267 -164 -72 1 -123 24 -183 84 l-41 41 -7 -50 -7 -51 -99 0 -98 0 2
188 3 187 103 3 c98 3 102 2 102 -19 0 -36 32 -90 64 -110 85 -52 196 6 156
81 -5 10 -45 32 -87 50 -128 53 -176 80 -221 124 -67 63 -95 125 -100 222 -13
235 148 397 341 343z m-8016 -19 c97 -11 148 -34 196 -90 46 -54 62 -115 61
-225 -2 -194 -96 -293 -286 -303 l-88 -4 0 -114 0 -114 35 0 35 0 0 -100 0
-100 -180 0 -181 0 3 98 3 97 33 3 32 3 0 324 0 324 -32 3 -33 3 -3 89 c-2 49
-1 95 2 103 6 16 273 18 403 3z m791 -13 c69 -24 119 -65 144 -116 27 -56 37
-207 18 -266 -15 -46 -61 -99 -99 -114 l-28 -12 52 -52 c56 -57 75 -105 75
-194 0 -56 11 -78 34 -70 11 4 16 19 16 47 0 39 1 40 36 40 l36 0 -4 -103 c-4
-116 -20 -156 -78 -194 -62 -42 -166 -27 -222 33 -44 47 -59 99 -68 228 -8
113 -11 122 -35 143 -14 13 -37 23 -51 23 l-24 0 0 -115 0 -115 35 0 35 0 0
-100 0 -100 -180 0 -180 0 0 100 0 100 30 0 30 0 0 325 0 325 -30 0 -30 0 0
106 0 107 223 -5 c162 -4 234 -10 265 -21z m692 -82 l0 -105 -35 0 -35 0 0
-325 0 -325 35 0 35 0 0 -100 0 -100 -185 0 -185 0 0 100 0 100 35 0 35 0 0
324 0 325 -32 3 -33 3 -3 89 c-2 49 -1 95 2 103 4 10 45 13 186 13 l180 0 0
-105z m526 -169 c30 -149 55 -274 56 -278 2 -5 23 96 46 224 24 128 48 254 54
281 l10 47 209 0 209 0 0 -100 0 -100 -30 0 -30 0 0 -335 0 -335 30 0 30 0 0
-95 0 -95 -175 0 -175 0 0 95 0 95 30 0 30 0 -1 283 -1 282 -19 -105 c-10 -58
-42 -226 -71 -375 l-53 -270 -117 -3 c-104 -2 -117 -1 -122 15 -14 49 -128
627 -135 688 -6 50 -9 -13 -10 -222 l-1 -293 30 0 30 0 0 -95 0 -95 -150 0
-150 0 0 95 0 95 30 0 30 0 0 335 0 335 -30 0 -30 0 0 93 c0 52 3 97 7 101 4
3 99 5 211 4 l205 -3 53 -269z m2204 -11 l56 -280 27 145 c15 80 39 207 53
283 l26 137 209 0 209 0 0 -100 0 -100 -30 0 -30 0 0 -335 0 -335 30 0 30 0 0
-95 0 -95 -175 0 -175 0 0 94 0 95 33 3 32 3 1 295 c1 162 -2 279 -6 260 -5
-19 -39 -196 -76 -392 l-68 -358 -117 0 -117 0 -12 53 c-48 224 -114 559 -125
637 -13 93 -13 88 -14 -202 l-1 -298 30 0 30 0 0 -95 0 -95 -150 0 -150 0 0
95 0 95 30 0 30 0 0 335 0 335 -25 0 -25 0 0 100 0 100 207 -2 207 -3 56 -280z
m1820 185 l0 -100 -31 0 c-24 0 -29 -3 -25 -18 20 -63 96 -348 106 -397 19
-93 21 -95 36 -25 8 36 39 147 69 247 30 99 55 184 55 187 0 3 -14 6 -30 6
l-31 0 3 98 3 97 155 0 155 0 3 -97 3 -98 -25 0 c-14 0 -28 -4 -31 -10 -3 -5
-64 -198 -134 -427 l-128 -418 -104 -3 -105 -3 -16 48 c-123 371 -263 773
-274 791 -9 13 -24 22 -39 22 -25 0 -25 1 -25 93 0 52 3 97 7 100 3 4 96 7
205 7 l198 0 0 -100z m1150 -70 l0 -170 -95 0 -95 0 0 65 0 65 -90 0 -90 0 0
-100 0 -100 105 0 105 0 0 -105 0 -105 -105 0 -105 0 0 -120 0 -120 90 0 90 0
0 70 0 70 95 0 95 0 0 -170 0 -170 -335 0 -335 0 0 100 0 100 35 0 35 0 0 324
0 325 -32 3 -33 3 -3 89 c-2 49 -1 95 2 103 4 10 70 13 336 13 l330 0 0 -170z
m420 65 l0 -105 -35 0 -35 0 0 -325 0 -325 35 0 35 0 0 -100 0 -100 -185 0
-185 0 0 100 0 100 35 0 35 0 0 324 0 325 -32 3 -33 3 -3 89 c-2 49 -1 95 2
103 4 10 45 13 186 13 l180 0 0 -105z m-1860 -874 c0 -11 -4 -23 -10 -26 -5
-3 -10 -2 -10 4 0 5 -3 16 -6 25 -4 11 -1 16 10 16 9 0 16 -8 16 -19z"/>
<path d="M3734 1833 c-44 -48 -59 -121 -59 -293 0 -125 4 -165 18 -208 37
-106 101 -143 146 -85 42 52 56 126 56 288 -1 172 -17 249 -65 296 -36 36 -64
37 -96 2z"/>
<path d="M5953 1848 c-28 -13 -58 -85 -74 -173 -15 -86 -6 -270 16 -342 34
-112 104 -146 152 -74 40 59 48 106 48 281 -1 148 -3 171 -24 222 -21 54 -60
99 -85 97 -6 0 -21 -5 -33 -11z m-8 -108 c3 -5 1 -10 -4 -10 -6 0 -11 5 -11
10 0 6 2 10 4 10 3 0 8 -4 11 -10z m60 -40 c3 -5 -3 -10 -14 -10 -11 0 -23 5
-26 10 -3 6 3 10 14 10 11 0 23 -4 26 -10z"/>
<path d="M647 1863 c-4 -3 -7 -62 -7 -130 l0 -123 50 0 c59 0 83 19 99 77 23
81 2 145 -53 168 -37 16 -78 19 -89 8z"/>
<path d="M1350 1740 l0 -130 34 0 c80 0 116 40 116 130 0 70 -21 106 -68 119
-84 24 -82 27 -82 -119z"/>
<path d="M5924 2506 c-4 -10 -2 -22 4 -28 8 -8 13 -7 18 6 4 10 2 22 -4 28 -8
8 -13 7 -18 -6z"/>
<path d="M1045 703 c-144 -20 -235 -89 -235 -178 0 -51 21 -82 65 -94 36 -10
100 0 118 18 18 18 3 21 -38 6 -71 -25 -125 3 -125 64 0 54 31 95 92 125 108
53 245 53 305 2 40 -35 38 -89 -6 -128 -23 -21 -40 -28 -55 -24 -11 3 -33 6
-48 6 -23 0 -28 4 -28 25 0 28 20 75 32 75 4 0 8 8 8 18 -1 26 -60 -43 -60
-71 0 -12 -7 -34 -14 -49 -9 -16 -11 -30 -5 -33 5 -4 9 -26 9 -50 0 -101 -101
-144 -176 -74 -12 11 -24 16 -28 11 -8 -14 36 -51 73 -62 77 -22 141 25 149
109 l4 49 50 7 c38 5 53 4 59 -6 13 -21 29 -81 29 -111 0 -31 23 -58 50 -58
10 0 32 11 49 25 l30 26 21 -21 c24 -24 57 -26 88 -4 18 12 26 13 37 4 8 -7
27 -10 43 -7 l27 6 -3 -112 c-4 -125 8 -187 37 -187 34 0 44 26 39 99 -3 45
-13 82 -26 104 l-20 35 30 42 c26 35 33 39 40 26 11 -19 49 -21 66 -4 9 9 16
7 32 -7 17 -15 24 -16 45 -7 14 7 28 19 32 27 4 13 8 12 17 -7 25 -51 86 -25
127 54 11 21 22 38 24 38 3 0 2 -24 -1 -54 -10 -84 13 -85 59 -2 31 56 47 57
47 4 0 -73 33 -88 80 -38 27 29 29 30 35 10 10 -31 52 -44 81 -25 13 8 24 21
24 27 0 6 11 -1 25 -16 40 -44 88 -31 130 36 10 16 12 28 6 32 -6 4 -17 -7
-26 -23 -18 -37 -49 -54 -76 -46 -20 7 -20 8 5 34 29 30 33 53 11 71 -24 20
-47 7 -75 -44 -35 -63 -53 -73 -80 -44 -14 16 -19 29 -14 43 3 11 16 57 28
103 l21 82 67 0 c39 0 68 4 68 10 0 6 -30 10 -70 10 -59 0 -71 3 -80 20 -6 11
-17 20 -25 20 -8 0 -19 -9 -25 -20 -9 -16 -21 -20 -65 -20 -30 0 -55 -4 -55
-10 0 -5 23 -10 50 -10 l50 0 0 -99 c0 -92 -2 -100 -26 -126 -31 -33 -42 -25
-46 35 -2 38 -7 46 -25 48 -16 2 -29 -7 -49 -37 -15 -23 -28 -41 -30 -41 -1 0
0 16 3 35 5 33 -8 65 -28 65 -5 0 -20 -21 -33 -47 -29 -57 -60 -88 -81 -80
-11 5 -15 22 -15 67 0 33 -4 60 -10 60 -5 0 -10 -11 -10 -25 0 -33 -25 -82
-49 -94 -26 -15 -41 5 -41 56 0 24 -4 43 -10 43 -5 0 -10 -11 -10 -25 0 -41
-21 -76 -44 -73 -23 3 -26 28 -11 81 12 44 -8 31 -33 -21 -12 -26 -33 -60 -45
-75 l-22 -28 3 58 c2 49 0 55 -10 39 -33 -48 -46 -59 -61 -53 -23 9 -21 43 4
68 16 16 27 19 52 13 28 -6 30 -5 18 10 -30 36 -82 12 -116 -53 -18 -37 -48
-54 -76 -46 -20 7 -20 8 5 34 29 30 33 53 11 71 -25 20 -49 6 -72 -42 -26 -55
-66 -87 -87 -69 -7 6 -16 34 -19 62 -4 28 -13 62 -22 76 -15 22 -14 25 14 49
72 60 60 154 -24 189 -35 15 -118 24 -160 18z m1205 -113 c0 -5 -5 -10 -11
-10 -5 0 -7 5 -4 10 3 6 8 10 11 10 2 0 4 -4 4 -10z m2 -73 c-1 -20 -9 -53
-17 -74 l-14 -38 0 71 c-1 39 2 74 6 78 15 15 28 -3 25 -37z m-1122 -43 c0 -2
-9 -4 -21 -4 -11 0 -18 4 -14 10 5 8 35 3 35 -6z m275 -74 c7 -12 -12 -50 -25
-50 -11 0 -14 43 -3 53 9 10 21 9 28 -3z m990 0 c7 -12 -12 -50 -25 -50 -11 0
-14 43 -3 53 9 10 21 9 28 -3z m-775 -307 c0 -28 -5 -55 -10 -58 -17 -10 -30
43 -29 118 l1 72 19 -40 c10 -23 19 -62 19 -92z"/>
<path d="M3013 683 c-29 -8 -70 -31 -93 -50 -35 -30 -40 -40 -40 -77 0 -75 48
-100 220 -117 114 -11 153 -28 148 -61 -8 -58 -132 -86 -239 -55 -53 16 -76
14 -49 -4 45 -28 182 -39 237 -18 67 25 94 87 54 123 -11 10 -49 21 -93 27
-223 29 -250 39 -256 96 -8 79 118 140 269 131 91 -5 127 -25 145 -77 10 -32
24 -32 24 0 0 29 -46 75 -88 87 -54 16 -176 14 -239 -5z"/>
<path d="M3509 668 c-8 -14 -15 -75 -17 -153 -3 -99 -8 -134 -20 -147 -23 -27
-42 -22 -42 11 0 32 -22 56 -45 47 -19 -7 -19 -46 0 -72 19 -26 19 -32 -5 -39
-43 -14 -67 40 -33 77 22 25 8 36 -17 13 -40 -36 -16 -115 35 -115 10 0 28 8
39 19 12 10 36 21 54 24 l32 7 0 -133 c0 -141 9 -173 46 -165 10 2 25 17 33
33 17 36 2 125 -29 166 l-19 27 39 26 c22 15 40 32 40 39 1 6 8 0 16 -15 27
-50 79 -27 131 58 10 18 12 18 21 -6 13 -35 4 -53 -24 -46 -26 7 -31 -3 -12
-22 22 -22 80 -14 109 14 l27 25 25 -25 c31 -31 37 -32 69 -6 25 19 26 19 43
0 25 -27 60 -25 83 5 l20 25 16 -25 c21 -32 79 -35 111 -5 20 18 23 19 35 5
15 -18 51 -20 68 -3 9 9 16 7 31 -6 18 -16 21 -16 50 -1 17 8 31 21 31 28 1 6
8 0 16 -15 8 -16 22 -28 30 -28 11 0 14 -6 10 -16 -4 -11 1 -18 14 -21 27 -7
19 -29 -9 -26 -27 3 -28 -14 -1 -22 39 -12 72 47 35 61 -19 8 -20 24 -1 24 7
0 25 9 39 20 22 17 26 18 37 5 15 -18 51 -20 67 -4 9 9 16 8 28 -5 21 -21 27
-20 57 4 25 19 26 19 43 0 23 -26 57 -25 80 0 10 11 28 20 40 20 24 0 55 28
55 50 0 9 -8 6 -23 -8 -32 -30 -47 -28 -47 7 0 32 -22 56 -45 47 -19 -7 -19
-46 0 -72 19 -26 19 -32 -5 -39 -43 -14 -67 40 -33 77 9 10 13 21 9 26 -7 7
-31 -18 -69 -72 -25 -36 -52 -33 -64 7 l-9 32 -18 -33 c-19 -37 -49 -40 -54
-5 -5 32 33 66 65 58 18 -4 24 -2 21 7 -9 26 -57 21 -83 -9 -14 -15 -38 -43
-54 -60 -33 -37 -84 -46 -95 -17 -11 28 -6 62 10 78 19 19 34 12 34 -15 0 -11
5 -17 10 -14 15 9 12 41 -5 55 -22 19 -54 2 -76 -41 -29 -58 -57 -83 -75 -68
-8 6 -14 20 -14 30 0 30 -18 31 -32 2 -8 -17 -21 -28 -33 -28 -28 0 -31 39 -5
65 17 17 28 20 53 14 28 -6 30 -5 18 10 -19 23 -59 20 -81 -6 -76 -92 -83 -98
-109 -98 -15 0 -32 5 -39 12 -17 17 -15 64 4 82 21 22 34 20 34 -4 0 -21 14
-27 24 -11 10 15 -4 40 -25 46 -25 8 -43 -7 -85 -72 -52 -81 -98 -63 -80 31 4
19 2 37 -3 40 -10 7 -21 -16 -21 -43 0 -27 -38 -71 -61 -71 -36 0 -43 39 -20
108 12 34 21 70 21 81 0 45 9 51 81 51 39 0 69 4 69 10 0 6 -31 10 -74 10 -65
0 -74 2 -79 20 -3 11 -12 20 -21 20 -9 0 -21 -9 -28 -20 -10 -16 -24 -20 -65
-20 -29 0 -53 -4 -53 -10 0 -5 22 -10 49 -10 l49 0 0 -100 c0 -90 -2 -102 -24
-125 -28 -30 -48 -33 -39 -6 3 12 -3 37 -15 60 -11 22 -20 50 -20 61 0 12 -4
18 -10 15 -5 -3 -10 -15 -10 -26 0 -32 -48 -117 -70 -124 -32 -10 -40 3 -40
66 0 38 -4 58 -10 54 -5 -3 -10 -16 -10 -28 0 -32 -33 -79 -69 -100 l-31 -18
0 44 c0 27 10 67 26 101 53 115 56 247 7 254 -14 2 -26 -5 -34 -20z m45 -14
c14 -37 -5 -155 -33 -200 -10 -15 -11 1 -8 81 5 99 12 135 27 135 4 0 11 -7
14 -16z m356 -64 c0 -5 -5 -10 -11 -10 -5 0 -7 5 -4 10 3 6 8 10 11 10 2 0 4
-4 4 -10z m-3 -85 c-9 -91 -26 -102 -27 -17 0 60 3 72 16 72 14 0 16 -8 11
-55z m-497 -126 c0 -11 -4 -17 -10 -14 -5 3 -10 15 -10 26 0 11 5 17 10 14 6
-3 10 -15 10 -26z m1490 0 c0 -11 -4 -17 -10 -14 -5 3 -10 15 -10 26 0 11 5
17 10 14 6 -3 10 -15 10 -26z m-1355 -204 c16 -52 12 -99 -7 -111 -19 -12 -28
20 -28 99 0 89 12 94 35 12z"/>
<path d="M8166 658 c-10 -39 -7 -298 4 -298 6 0 10 48 10 123 0 67 3 139 6
160 7 40 -9 53 -20 15z"/>
<path d="M6850 600 c-9 -16 -21 -20 -65 -20 -30 0 -55 -4 -55 -10 0 -5 23 -10
50 -10 l50 0 0 -99 c0 -92 -2 -100 -26 -126 -31 -33 -42 -25 -46 35 -2 38 -7
46 -25 48 -16 2 -29 -7 -49 -37 -15 -23 -28 -41 -29 -41 -2 0 -1 17 2 38 4 28
1 42 -12 52 -19 16 -23 12 -57 -49 -23 -41 -44 -40 -52 3 -5 28 -21 46 -41 46
-3 0 -9 -10 -16 -21 -9 -17 -7 -26 9 -49 15 -20 18 -30 9 -39 -17 -17 -45 -13
-57 8 -14 28 -13 38 11 62 11 11 18 23 16 26 -7 7 -47 -16 -47 -27 0 -5 -14
-25 -31 -45 -48 -54 -109 -45 -109 16 0 27 22 59 41 59 5 0 9 -9 9 -20 0 -21
14 -27 24 -11 10 15 -5 40 -27 47 -23 7 -57 -25 -89 -84 -10 -20 -25 -32 -37
-32 -17 0 -20 8 -23 48 -3 39 -6 47 -24 50 -16 2 -28 -7 -45 -35 l-24 -38 -3
40 c-6 75 -34 69 -78 -17 -16 -31 -32 -50 -49 -54 -37 -9 -50 4 -27 30 30 33
34 44 22 66 -13 24 -42 26 -61 4 -21 -25 -14 -85 11 -106 45 -37 91 -15 130
62 11 22 23 40 26 40 3 0 4 -25 2 -57 -4 -75 12 -78 51 -8 17 30 36 55 41 55
6 0 10 -20 10 -45 0 -35 4 -47 21 -56 18 -9 27 -7 51 11 l30 22 14 -21 c20
-28 80 -29 110 0 l22 21 21 -21 c26 -26 51 -27 82 -3 13 11 37 22 52 26 17 4
36 20 49 41 11 19 22 35 24 35 2 0 1 -24 -2 -54 -10 -84 13 -85 59 -2 31 56
47 57 47 4 0 -73 33 -88 80 -38 27 29 29 30 35 10 4 -12 18 -26 32 -31 36 -13
66 9 89 65 26 62 44 60 44 -4 0 -44 3 -52 25 -62 22 -10 30 -8 54 10 24 18 30
19 35 7 6 -17 61 -21 71 -5 4 6 16 3 31 -7 24 -15 27 -15 50 3 32 24 61 71 50
81 -5 4 -11 3 -13 -4 -10 -28 -46 -63 -64 -63 -14 0 -21 9 -25 30 -4 17 -9 30
-13 30 -4 0 -12 -14 -18 -30 -16 -41 -53 -42 -53 -2 0 38 31 66 65 58 14 -4
25 -2 25 4 0 15 -46 23 -69 11 -11 -6 -34 -31 -50 -55 -50 -73 -78 -69 -83 9
-3 43 -6 50 -25 53 -15 2 -23 10 -23 23 0 26 -27 24 -41 -3 -9 -18 -8 -24 5
-34 16 -11 16 -15 -3 -52 -11 -22 -27 -42 -36 -45 -22 -9 -58 33 -49 58 3 11
16 57 28 103 l21 82 67 0 c39 0 68 4 68 10 0 6 -30 10 -70 10 -59 0 -71 3 -80
20 -6 11 -17 20 -25 20 -8 0 -19 -9 -25 -20z m30 -10 c0 -5 -5 -10 -11 -10 -5
0 -7 5 -4 10 3 6 8 10 11 10 2 0 4 -4 4 -10z m2 -73 c-1 -20 -9 -53 -17 -74
l-14 -38 0 71 c-1 39 2 74 6 78 15 15 28 -3 25 -37z m-952 -126 c0 -20 -25
-47 -33 -34 -7 12 11 53 23 53 5 0 10 -8 10 -19z m590 -21 c-1 -12 -4 -11 -15
4 -8 10 -12 23 -8 29 7 11 23 -12 23 -33z"/>
<path d="M1845 521 c-9 -16 3 -31 26 -31 14 0 19 6 17 17 -4 20 -33 29 -43 14z"/>
<path d="M3605 520 c-9 -15 4 -30 26 -30 12 0 19 7 19 20 0 21 -33 29 -45 10z"/>
<path d="M3990 510 c0 -13 7 -20 18 -20 24 0 32 8 25 26 -8 22 -43 17 -43 -6z
m30 0 c0 -5 -4 -10 -10 -10 -5 0 -10 5 -10 10 0 6 5 10 10 10 6 0 10 -4 10
-10z"/>
<path d="M7990 510 c0 -13 7 -20 18 -20 24 0 32 8 25 26 -8 22 -43 17 -43 -6z
m30 0 c0 -5 -4 -10 -10 -10 -5 0 -10 5 -10 10 0 6 5 10 10 10 6 0 10 -4 10
-10z"/>
<path d="M4700 493 c0 -13 -3 -14 -12 -5 -15 15 -45 16 -54 1 -3 -6 -1 -16 6
-22 10 -9 14 -9 17 1 4 10 8 10 19 1 7 -6 21 -9 29 -5 17 6 21 46 5 46 -5 0
-10 -8 -10 -17z"/>
<path d="M5636 485 c-17 -26 -9 -34 12 -13 8 8 15 8 27 -2 23 -19 31 -3 10 20
-23 26 -29 25 -49 -5z"/>
<path d="M5190 420 c0 -31 -31 -100 -45 -100 -17 0 -25 23 -25 71 0 21 -4 39
-10 39 -19 0 -11 -86 10 -113 26 -33 43 -26 68 24 17 33 21 37 32 24 7 -8 21
-15 31 -15 11 0 23 -10 28 -24 16 -40 66 -49 96 -16 10 11 28 20 41 20 13 0
26 5 30 11 4 7 12 -1 20 -20 11 -27 18 -31 53 -31 28 0 48 7 67 24 l28 23 19
-23 c28 -36 68 -32 106 11 29 33 41 65 24 65 -5 -1 -17 -15 -28 -32 -25 -39
-47 -53 -70 -44 -17 6 -16 8 4 30 30 32 26 80 -7 84 -16 3 -26 -5 -40 -29 -31
-60 -68 -91 -104 -87 -25 2 -33 9 -39 30 -8 31 10 73 31 73 8 0 15 -8 15 -17
0 -10 5 -18 10 -18 16 0 11 42 -6 53 -24 15 -45 3 -74 -43 -28 -45 -55 -53
-55 -17 0 33 -23 62 -44 54 -20 -8 -21 -60 -1 -77 20 -17 19 -27 -4 -35 -47
-15 -71 29 -39 70 29 37 13 44 -22 10 -34 -33 -57 -28 -73 15 -13 34 -27 40
-27 10z m190 -48 c0 -7 -4 -10 -10 -7 -5 3 -10 16 -10 28 0 18 2 19 10 7 5 -8
10 -21 10 -28z m290 19 c0 -20 -27 -48 -37 -37 -9 8 14 56 27 56 5 0 10 -8 10
-19z"/>
<path d="M7996 424 c-3 -9 -6 -24 -6 -33 0 -26 -38 -71 -61 -71 -22 0 -34 37
-25 75 5 18 2 25 -9 25 -10 0 -15 -10 -15 -31 0 -41 -16 -69 -41 -69 -18 0
-21 5 -17 38 3 20 8 45 12 55 5 10 4 17 -3 17 -6 0 -24 -26 -40 -57 -16 -32
-37 -67 -46 -78 -15 -19 -16 -17 -12 33 5 63 -7 76 -27 27 -19 -45 -56 -50
-56 -7 0 38 31 66 65 58 14 -4 25 -2 25 4 0 15 -46 23 -68 11 -12 -6 -33 -30
-49 -53 -37 -55 -71 -63 -79 -19 -8 39 -17 39 -31 1 -16 -41 -53 -42 -53 -2 0
38 31 66 65 58 14 -4 25 -2 25 4 0 21 -51 23 -78 3 -22 -17 -27 -28 -27 -64 0
-41 2 -44 29 -47 16 -2 33 1 39 7 6 6 18 5 34 -6 22 -15 26 -15 53 5 24 18 29
19 34 6 5 -12 16 -15 41 -12 l35 4 0 -129 c0 -134 8 -167 40 -167 46 0 52 103
11 195 l-21 47 30 41 c23 32 31 37 36 24 7 -19 59 -24 69 -7 4 6 16 3 31 -7
24 -15 27 -15 53 5 29 21 29 21 46 1 27 -29 60 -24 88 14 34 46 38 55 28 61
-5 3 -20 -12 -35 -34 -45 -68 -88 -42 -72 44 7 35 -7 58 -18 30z m-229 -324
c2 -25 -1 -52 -7 -60 -18 -27 -30 9 -29 95 l1 80 15 -35 c9 -19 18 -55 20 -80z"/>
<path d="M2611 411 c-18 -33 -13 -76 12 -99 27 -26 54 -28 85 -6 28 19 55 71
42 79 -5 3 -16 -8 -25 -24 -18 -37 -48 -54 -76 -46 -19 6 -19 8 6 31 36 33 32
78 -7 82 -18 2 -30 -3 -37 -17z m49 -14 c0 -19 -27 -53 -35 -45 -12 12 4 58
20 58 8 0 15 -6 15 -13z"/>
<path d="M8150 306 c0 -9 7 -16 16 -16 9 0 14 5 12 12 -6 18 -28 21 -28 4z"/>
</g>
</svg>
